<svg width="1670" height="790" viewBox="0 0 1670 790" fill="none" xmlns="http://www.w3.org/2000/svg">
<g clip-path="url(#clip0_426_2)">
<mask id="mask0_426_2" style="mask-type:luminance" maskUnits="userSpaceOnUse" x="0" y="147" width="1670" height="643">
<path d="M1670 147L0 147L8.53778e-06 789.933L1670 789.933L1670 147Z" fill="white"/>
</mask>
<g mask="url(#mask0_426_2)">
<path d="M-166.158 430.934C-105.59 430.934 -105.59 411.831 -45.0194 411.831C15.552 411.831 -4.67974 514.3 55.8917 514.3C116.462 514.3 136.694 418.936 197.264 418.936C257.834 418.936 257.834 452.808 318.404 452.808C378.975 452.808 381.131 764.859 441.702 764.859C502.274 764.859 500.118 502.414 560.69 502.414C621.261 502.414 621.261 627.911 681.832 627.911C742.404 627.911 742.404 502.084 802.975 502.084C863.547 502.084 863.547 550.981 924.118 550.981C984.687 550.981 984.687 516.303 1045.26 516.303C1105.83 516.303 1105.83 725.056 1166.4 725.056C1226.97 725.056 1226.97 529.802 1287.54 529.802C1348.11 529.802 1348.11 618.82 1408.69 618.82C1469.25 618.82 1468.46 323.461 1529.04 323.461C1589.6 323.461 1590.41 565.37 1650.97 565.37C1711.55 565.37 1711.55 592.563 1772.12 592.563C1832.7 592.563 1832.7 432.089 1893.28 432.089" stroke="#101C3F" stroke-width="1.64" stroke-miterlimit="10"/>
<path d="M1887.67 431.914C1827.14 431.914 1827.14 578.051 1766.61 578.051C1706.09 578.051 1706.09 554.721 1645.55 554.721C1585.03 554.721 1584.28 336.465 1523.76 336.465C1463.23 336.465 1463.97 615.592 1403.44 615.592C1342.92 615.592 1342.92 519.18 1282.39 519.18C1221.86 519.18 1221.86 684.532 1161.34 684.532C1100.81 684.532 1101.44 518.161 1040.91 518.161C980.389 518.161 979.527 533.543 919.002 533.543C858.475 533.543 858.708 494.385 798.181 494.385C737.653 494.385 737.425 604.213 676.899 604.213C616.372 604.213 616.601 498.876 556.071 498.876C495.546 498.876 497.543 738.898 437.018 738.898C376.494 738.898 374.263 447.918 313.973 446.043C246.325 443.938 252.757 424.262 192.794 424.505C132.295 424.785 106.241 496.92 45.7163 496.92C-14.8212 496.92 11.3378 419.131 -49.1867 419.131C-109.711 419.131 -109.711 440.303 -170.235 440.303" stroke="url(#paint0_linear_426_2)" stroke-width="1.64" stroke-miterlimit="10"/>
<path d="M1882.08 431.741C1821.59 431.741 1821.59 563.54 1761.11 563.54C1700.62 563.54 1700.62 544.072 1640.14 544.072C1579.65 544.072 1578.97 349.47 1518.49 349.47C1458 349.47 1458.69 612.365 1398.21 612.365C1337.72 612.365 1337.72 508.558 1277.24 508.558C1216.76 508.558 1216.76 644.008 1156.28 644.008C1095.8 644.008 1097.06 520.02 1036.57 520.02C976.094 520.02 974.368 516.105 913.888 516.105C853.405 516.105 853.87 486.689 793.387 486.689C732.906 486.689 732.45 580.514 671.968 580.514C611.486 580.514 611.942 495.338 551.465 495.338C490.98 495.338 492.82 712.94 432.347 712.94C371.862 712.94 369.527 442.763 309.524 439.279C234.779 434.937 247.669 429.589 188.345 430.076C127.886 430.636 96.0122 479.543 35.5268 479.543C-24.9454 479.543 7.12379 426.432 -53.3615 426.432C-113.847 426.432 -113.847 449.672 -174.319 449.672" stroke="url(#paint1_linear_426_2)" stroke-width="1.64" stroke-miterlimit="10"/>
<path d="M1876.48 431.567C1816.04 431.567 1816.04 549.031 1755.6 549.031C1695.16 549.031 1695.16 533.424 1634.72 533.424C1574.28 533.424 1573.65 362.473 1513.22 362.473C1452.78 362.473 1453.41 609.138 1392.97 609.138C1332.53 609.138 1332.53 497.936 1272.09 497.936C1211.66 497.936 1211.66 603.486 1151.22 603.486C1090.78 603.486 1092.67 521.879 1032.23 521.879C971.798 521.879 969.211 498.667 908.774 498.667C848.337 498.667 849.033 478.991 788.595 478.991C728.158 478.991 727.474 556.817 667.037 556.817C606.599 556.817 607.284 491.799 546.847 491.799C486.414 491.799 488.097 686.98 427.664 686.98C367.231 686.98 364.778 437.409 305.101 432.515C223.193 425.798 242.594 434.916 183.883 435.647C123.489 436.487 85.7834 462.164 25.3503 462.164C-35.0828 462.164 2.90962 433.733 -57.5235 433.733C-117.97 433.733 -117.97 459.042 -178.403 459.042" stroke="url(#paint2_linear_426_2)" stroke-width="1.64" stroke-miterlimit="10"/>
<path d="M1870.88 431.393C1810.49 431.393 1810.49 534.52 1750.09 534.52C1689.7 534.52 1689.7 522.776 1629.3 522.776C1568.91 522.776 1568.34 375.478 1507.94 375.478C1447.55 375.478 1448.12 605.91 1387.73 605.91C1327.34 605.91 1327.34 487.314 1266.94 487.314C1206.55 487.314 1206.55 562.962 1146.16 562.962C1085.76 562.962 1088.29 523.738 1027.89 523.738C967.502 523.738 964.052 481.23 903.661 481.23C843.267 481.23 844.196 471.293 783.803 471.293C723.41 471.293 722.498 533.119 662.106 533.119C601.713 533.119 602.625 488.261 542.228 488.261C481.834 488.261 483.374 661.022 422.98 661.022C362.586 661.022 360.029 431.906 300.665 425.752C211.62 416.52 237.519 440.243 179.421 441.216C119.079 442.337 75.5677 444.786 15.1737 444.786C-45.2203 444.786 -1.30455 441.032 -61.6985 441.032C-122.093 441.032 -122.092 468.411 -182.486 468.411" stroke="url(#paint3_linear_426_2)" stroke-width="1.64" stroke-miterlimit="10"/>
<path d="M1865.29 431.22C1804.94 431.22 1804.94 520.009 1744.59 520.009C1684.24 520.009 1684.24 512.129 1623.88 512.129C1563.54 512.129 1563.02 388.482 1502.67 388.482C1442.33 388.482 1442.84 602.683 1382.49 602.683C1322.14 602.683 1322.14 476.692 1261.79 476.692C1201.45 476.692 1201.45 522.44 1141.1 522.44C1080.75 522.44 1083.9 525.598 1023.55 525.598C963.207 525.598 958.893 463.793 898.546 463.793C838.198 463.793 839.359 463.597 779.01 463.597C718.663 463.597 717.522 509.422 657.175 509.422C596.827 509.422 597.967 484.723 537.623 484.723C477.268 484.723 478.651 635.063 418.309 635.063C357.954 635.063 355.293 426.287 296.229 418.988C200.035 407.103 232.43 445.57 174.959 446.787C114.682 448.187 65.339 427.408 4.99718 427.408C-55.3577 427.408 -5.51868 448.333 -65.8605 448.333C-126.215 448.333 -126.215 477.782 -186.557 477.782" stroke="url(#paint4_linear_426_2)" stroke-width="1.64" stroke-miterlimit="10"/>
<path d="M1859.7 431.046C1799.4 431.046 1799.4 505.498 1739.09 505.498C1678.79 505.498 1678.79 501.48 1618.48 501.48C1558.18 501.48 1557.72 401.487 1497.42 401.487C1437.11 401.487 1437.57 599.456 1377.27 599.456C1316.96 599.456 1316.96 466.071 1256.66 466.071C1196.35 466.071 1196.35 481.916 1136.05 481.916C1075.75 481.916 1079.53 527.458 1019.23 527.458C958.923 527.458 953.747 446.356 893.445 446.356C833.141 446.356 834.534 455.899 774.23 455.899C713.928 455.899 712.559 485.723 652.256 485.723C591.954 485.723 593.321 481.184 533.017 481.184C472.714 481.184 473.941 609.105 413.638 609.105C353.336 609.105 350.583 420.575 291.806 412.224C188.488 397.545 227.368 450.897 170.51 452.358C110.285 454.039 55.1362 410.029 -5.16646 410.029C-65.4822 410.029 -9.71977 455.634 -70.0224 455.634C-130.325 455.634 -130.325 487.151 -190.628 487.151" stroke="url(#paint5_linear_426_2)" stroke-width="1.64" stroke-miterlimit="10"/>
<path d="M1854.1 430.873C1793.84 430.873 1793.84 490.989 1733.59 490.989C1673.32 490.989 1673.32 490.833 1613.06 490.833C1552.8 490.833 1552.4 414.493 1492.15 414.493C1431.89 414.493 1432.29 596.229 1372.03 596.229C1311.77 596.229 1311.77 455.45 1251.51 455.45C1191.25 455.45 1191.25 441.393 1130.99 441.393C1070.73 441.393 1075.14 529.317 1014.89 529.317C954.627 529.317 948.59 428.919 888.332 428.919C828.072 428.919 829.697 448.203 769.437 448.203C709.18 448.203 707.584 462.026 647.326 462.026C587.066 462.026 588.662 477.647 528.399 477.647C468.148 477.647 469.218 583.146 408.967 583.146C348.704 583.146 345.86 414.793 287.371 405.46C176.955 387.847 222.293 456.224 166.048 457.928C105.889 459.889 44.9074 392.651 -15.3561 392.651C-75.6065 392.651 -13.9339 462.936 -74.1974 462.936C-134.448 462.936 -134.448 496.52 -194.711 496.52" stroke="url(#paint6_linear_426_2)" stroke-width="1.64" stroke-miterlimit="10"/>
<path d="M1848.51 430.699C1788.29 430.699 1788.29 476.478 1728.08 476.478C1667.86 476.478 1667.86 480.185 1607.65 480.185C1547.43 480.185 1547.09 427.496 1486.88 427.496C1426.66 427.496 1427 593.001 1366.79 593.001C1306.57 593.001 1306.57 444.828 1246.36 444.828C1186.15 444.828 1186.15 400.87 1125.93 400.87C1065.72 400.87 1070.76 531.176 1010.54 531.176C950.332 531.176 943.431 411.481 883.217 411.481C823.002 411.481 824.86 440.505 764.645 440.505C704.432 440.505 702.608 438.328 642.394 438.328C582.18 438.328 584.004 474.109 523.793 474.109C463.569 474.109 464.495 557.188 404.284 557.188C344.072 557.188 341.163 408.95 282.935 398.697C165.435 378.009 217.205 461.553 161.586 463.499C101.492 465.739 34.6787 375.272 -25.5326 375.272C-85.744 375.272 -18.1481 470.237 -78.3594 470.237C-138.571 470.237 -138.571 505.89 -198.795 505.89" stroke="url(#paint7_linear_426_2)" stroke-width="1.64" stroke-miterlimit="10"/>
<path d="M1842.91 430.526C1782.74 430.526 1782.74 461.968 1722.57 461.968C1662.4 461.968 1662.4 469.537 1602.23 469.537C1542.06 469.537 1541.77 440.502 1481.6 440.502C1421.44 440.502 1421.72 589.775 1361.55 589.775C1301.38 589.775 1301.38 434.206 1241.21 434.206C1181.04 434.206 1181.04 360.347 1120.87 360.347C1060.7 360.347 1066.37 533.035 1006.21 533.035C946.036 533.035 938.273 394.043 878.103 394.043C817.934 394.043 820.022 432.808 759.853 432.808C699.685 432.808 697.632 414.631 637.464 414.631C577.293 414.631 579.345 470.571 519.174 470.571C459.002 470.571 459.772 531.228 399.6 531.228C339.441 531.228 336.479 403.061 278.499 391.933C153.966 368.033 212.129 466.88 157.124 469.069C97.082 471.591 24.463 357.894 -35.7092 357.894C-95.8814 357.894 -22.3622 477.538 -82.5344 477.538C-142.694 477.538 -142.694 515.259 -202.866 515.259" stroke="url(#paint8_linear_426_2)" stroke-width="1.64" stroke-miterlimit="10"/>
<path d="M1837.31 430.353C1777.19 430.353 1777.19 447.458 1717.06 447.458C1656.94 447.458 1656.94 458.889 1596.81 458.889C1536.69 458.889 1536.46 453.507 1476.33 453.507C1416.21 453.507 1416.44 586.547 1356.31 586.547C1296.19 586.547 1296.19 423.584 1236.06 423.584C1175.94 423.584 1175.94 319.825 1115.81 319.825C1055.69 319.825 1061.99 534.895 1001.86 534.895C941.741 534.895 933.114 376.606 872.99 376.606C812.864 376.606 815.186 425.112 755.059 425.112C694.937 425.112 692.656 390.933 632.532 390.933C572.407 390.933 574.688 467.032 514.556 467.032C454.436 467.032 455.049 505.269 394.929 505.269C334.796 505.269 331.808 397.134 274.063 385.17C142.524 357.916 207.054 472.207 152.662 474.64C92.6852 477.441 14.2343 340.516 -45.8857 340.516C-106.019 340.516 -26.5762 484.839 -86.6962 484.839C-146.829 484.839 -146.829 524.629 -206.949 524.629" stroke="url(#paint9_linear_426_2)" stroke-width="1.64" stroke-miterlimit="10"/>
<path d="M1831.72 430.179C1771.64 430.179 1771.64 432.947 1711.56 432.947C1651.47 432.947 1651.47 448.241 1591.39 448.241C1531.31 448.241 1531.14 466.511 1471.06 466.511C1410.98 466.511 1411.15 583.321 1351.07 583.321C1290.99 583.321 1290.99 412.962 1230.91 412.962C1170.83 412.962 1170.83 279.301 1110.75 279.301C1050.67 279.301 1057.6 536.754 997.524 536.754C937.444 536.754 927.956 359.169 867.876 359.169C807.795 359.169 810.348 417.414 750.267 417.414C690.189 417.414 687.68 367.236 627.602 367.236C567.521 367.236 570.028 463.494 509.95 463.494C449.869 463.494 450.326 479.311 390.245 479.311C330.164 479.311 327.15 391.175 269.627 378.406C131.134 347.663 201.979 477.534 148.2 480.211C88.2752 483.291 4.01844 323.137 -56.0624 323.137C-116.156 323.137 -30.7775 492.14 -90.8714 492.14C-150.952 492.14 -150.952 533.998 -211.033 533.998" stroke="url(#paint10_linear_426_2)" stroke-width="1.64" stroke-miterlimit="10"/>
<path d="M1826.12 430.006C1766.08 430.006 1766.08 418.437 1706.05 418.437C1646.01 418.437 1646.01 437.594 1585.98 437.594C1525.94 437.594 1525.83 479.516 1465.79 479.516C1405.76 479.516 1405.87 580.093 1345.83 580.093C1285.8 580.093 1285.8 402.341 1225.76 402.341C1165.73 402.341 1165.73 238.779 1105.69 238.779C1045.65 238.779 1053.22 538.614 993.184 538.614C933.148 538.614 922.798 341.732 862.761 341.732C802.725 341.732 805.512 409.716 745.475 409.716C685.44 409.716 682.705 343.537 622.67 343.537C562.634 343.537 565.369 459.956 505.332 459.956C445.303 459.956 445.603 453.352 385.574 453.352C325.533 453.352 322.506 385.191 265.191 371.643C119.783 337.273 196.891 482.861 143.738 485.781C83.8785 489.143 -6.21013 305.759 -66.2518 305.759C-126.281 305.759 -34.9916 499.441 -95.0333 499.441C-155.075 499.441 -155.075 543.368 -215.117 543.368" stroke="url(#paint11_linear_426_2)" stroke-width="1.64" stroke-miterlimit="10"/>
<path d="M1820.52 429.831C1760.53 429.831 1760.53 403.926 1700.54 403.926C1640.55 403.926 1640.55 426.945 1580.56 426.945C1520.57 426.945 1520.51 492.52 1460.52 492.52C1400.53 492.52 1400.59 576.866 1340.6 576.866C1280.61 576.866 1280.61 391.719 1220.61 391.719C1160.62 391.719 1160.62 198.254 1100.63 198.254C1040.64 198.254 1048.83 540.473 988.844 540.473C928.853 540.473 917.639 324.294 857.648 324.294C797.656 324.294 800.674 402.019 740.682 402.019C680.692 402.019 677.729 319.838 617.74 319.838C557.747 319.838 560.712 456.417 500.713 456.417C440.724 456.417 440.88 427.393 380.891 427.393C320.901 427.393 317.874 379.183 260.755 364.879C108.498 326.748 191.815 488.187 139.289 491.351C79.4817 494.993 -16.4389 288.38 -76.4284 288.38C-136.418 288.38 -39.2058 506.741 -99.2084 506.741C-159.198 506.741 -159.198 552.737 -219.187 552.737" stroke="url(#paint12_linear_426_2)" stroke-width="1.64" stroke-miterlimit="10"/>
<path d="M1814.92 429.658C1754.98 429.658 1754.98 389.416 1695.03 389.416C1635.09 389.416 1635.09 416.296 1575.14 416.296C1515.19 416.296 1515.19 505.524 1455.25 505.524C1395.3 505.524 1395.3 573.638 1335.36 573.638C1275.41 573.638 1275.41 381.097 1215.46 381.097C1155.52 381.097 1155.52 157.732 1095.57 157.732C1035.62 157.732 1044.45 542.332 984.503 542.332C924.556 542.332 912.48 306.857 852.534 306.857C792.587 306.857 795.837 394.322 735.889 394.322C675.944 394.322 672.753 296.141 612.808 296.141C552.861 296.141 556.053 452.88 496.107 452.88C436.157 452.88 436.157 401.433 376.207 401.433C316.269 401.433 313.255 373.158 256.319 358.115C97.2514 316.091 186.74 493.514 134.826 496.922C75.0717 500.843 -26.6547 271.001 -86.6051 271.001C-146.555 271.001 -43.4201 514.042 -103.37 514.042C-163.321 514.042 -163.321 562.107 -223.271 562.107" stroke="url(#paint13_linear_426_2)" stroke-width="1.64" stroke-miterlimit="10"/>
<path d="M725.859 393.218L725.859 330.217" stroke="url(#paint14_linear_426_2)" stroke-width="0.82" stroke-miterlimit="10"/>
<path d="M133.505 589.84L133.505 499.629" stroke="url(#paint15_linear_426_2)" stroke-width="0.82" stroke-miterlimit="10"/>
<path d="M128.498 604.042C128.498 601.277 130.739 599.035 133.505 599.035C136.27 599.035 138.512 601.277 138.512 604.042C138.512 606.806 136.27 609.048 133.505 609.048C130.739 609.048 128.498 606.806 128.498 604.042Z" stroke="#7DE1D0" stroke-width="0.82" stroke-miterlimit="10"/>
<path d="M720.852 318.454C720.852 315.69 723.094 313.448 725.859 313.448C728.625 313.448 730.867 315.69 730.867 318.454C730.867 321.219 728.625 323.46 725.859 323.46C723.094 323.46 720.852 321.219 720.852 318.454Z" stroke="#7DE1D0" stroke-width="0.82" stroke-miterlimit="10"/>
<path d="M1338.66 572.155L1338.66 391.732" stroke="url(#paint16_linear_426_2)" stroke-width="0.82" stroke-miterlimit="10"/>
<path d="M1343.67 381.454C1343.67 378.689 1341.43 376.448 1338.66 376.448C1335.9 376.448 1333.65 378.689 1333.65 381.454C1333.65 384.219 1335.9 386.46 1338.66 386.46C1341.43 386.46 1343.67 384.219 1343.67 381.454Z" fill="#FF947D"/>
</g>
</g>
<defs>
<linearGradient id="paint0_linear_426_2" x1="-170.235" y1="537.682" x2="1887.67" y2="537.682" gradientUnits="userSpaceOnUse">
<stop stop-color="#212543"/>
<stop offset="0.26" stop-color="#202045"/>
<stop offset="1" stop-color="#101C3F"/>
</linearGradient>
<linearGradient id="paint1_linear_426_2" x1="-174.319" y1="531.205" x2="1882.08" y2="531.205" gradientUnits="userSpaceOnUse">
<stop stop-color="#322D48"/>
<stop offset="0.26" stop-color="#30234C"/>
<stop offset="1" stop-color="#101C3F"/>
</linearGradient>
<linearGradient id="paint2_linear_426_2" x1="-178.403" y1="524.727" x2="1876.48" y2="524.727" gradientUnits="userSpaceOnUse">
<stop stop-color="#43364C"/>
<stop offset="0.26" stop-color="#402752"/>
<stop offset="1" stop-color="#101C3F"/>
</linearGradient>
<linearGradient id="paint3_linear_426_2" x1="-182.486" y1="518.25" x2="1870.88" y2="518.25" gradientUnits="userSpaceOnUse">
<stop stop-color="#543E51"/>
<stop offset="0.26" stop-color="#502A58"/>
<stop offset="1" stop-color="#101C3F"/>
</linearGradient>
<linearGradient id="paint4_linear_426_2" x1="-186.557" y1="511.772" x2="1865.29" y2="511.772" gradientUnits="userSpaceOnUse">
<stop stop-color="#654755"/>
<stop offset="0.26" stop-color="#602E5E"/>
<stop offset="1" stop-color="#101C3F"/>
</linearGradient>
<linearGradient id="paint5_linear_426_2" x1="-190.628" y1="505.296" x2="1859.7" y2="505.296" gradientUnits="userSpaceOnUse">
<stop stop-color="#764F5A"/>
<stop offset="0.26" stop-color="#703165"/>
<stop offset="1" stop-color="#101C3F"/>
</linearGradient>
<linearGradient id="paint6_linear_426_2" x1="-194.711" y1="494.44" x2="1854.1" y2="494.44" gradientUnits="userSpaceOnUse">
<stop stop-color="#88585E"/>
<stop offset="0.26" stop-color="#80356B"/>
<stop offset="1" stop-color="#101C3F"/>
</linearGradient>
<linearGradient id="paint7_linear_426_2" x1="-198.795" y1="484.137" x2="1848.51" y2="484.137" gradientUnits="userSpaceOnUse">
<stop stop-color="#996162"/>
<stop offset="0.26" stop-color="#8F3971"/>
<stop offset="1" stop-color="#101C3F"/>
</linearGradient>
<linearGradient id="paint8_linear_426_2" x1="-202.866" y1="473.834" x2="1842.91" y2="473.834" gradientUnits="userSpaceOnUse">
<stop stop-color="#AA6967"/>
<stop offset="0.26" stop-color="#9F3C78"/>
<stop offset="1" stop-color="#101C3F"/>
</linearGradient>
<linearGradient id="paint9_linear_426_2" x1="-206.949" y1="453.186" x2="1837.31" y2="453.186" gradientUnits="userSpaceOnUse">
<stop stop-color="#BB726B"/>
<stop offset="0.26" stop-color="#AF407E"/>
<stop offset="1" stop-color="#101C3F"/>
</linearGradient>
<linearGradient id="paint10_linear_426_2" x1="-211.033" y1="431.31" x2="1831.72" y2="431.31" gradientUnits="userSpaceOnUse">
<stop stop-color="#CC7A70"/>
<stop offset="0.26" stop-color="#BF4384"/>
<stop offset="1" stop-color="#101C3F"/>
</linearGradient>
<linearGradient id="paint11_linear_426_2" x1="-215.117" y1="409.436" x2="1826.12" y2="409.436" gradientUnits="userSpaceOnUse">
<stop stop-color="#DD8374"/>
<stop offset="0.26" stop-color="#CF478A"/>
<stop offset="1" stop-color="#101C3F"/>
</linearGradient>
<linearGradient id="paint12_linear_426_2" x1="-219.187" y1="387.56" x2="1820.52" y2="387.56" gradientUnits="userSpaceOnUse">
<stop stop-color="#EE8B79"/>
<stop offset="0.26" stop-color="#DF4A91"/>
<stop offset="1" stop-color="#101C3F"/>
</linearGradient>
<linearGradient id="paint13_linear_426_2" x1="-223.271" y1="365.684" x2="1814.92" y2="365.684" gradientUnits="userSpaceOnUse">
<stop stop-color="#FF947D"/>
<stop offset="0.26" stop-color="#EF4E97"/>
<stop offset="1" stop-color="#101C3F"/>
</linearGradient>
<linearGradient id="paint14_linear_426_2" x1="nan" y1="nan" x2="nan" y2="nan" gradientUnits="userSpaceOnUse">
<stop stop-color="#7DE1D0"/>
<stop offset="1" stop-color="#101C3F"/>
</linearGradient>
<linearGradient id="paint15_linear_426_2" x1="nan" y1="nan" x2="nan" y2="nan" gradientUnits="userSpaceOnUse">
<stop stop-color="#7DE1D0"/>
<stop offset="1" stop-color="#101C3F"/>
</linearGradient>
<linearGradient id="paint16_linear_426_2" x1="nan" y1="nan" x2="nan" y2="nan" gradientUnits="userSpaceOnUse">
<stop stop-color="#FF947D"/>
<stop offset="1" stop-color="#101C3F"/>
</linearGradient>
<clipPath id="clip0_426_2">
<rect width="1670" height="790" fill="white" transform="translate(1670 790) rotate(180)"/>
</clipPath>
</defs>
</svg>
