<svg width="128" height="128" viewBox="0 0 128 128" fill="none" xmlns="http://www.w3.org/2000/svg">
<style>
  @media (prefers-color-scheme: dark) {
    path {
      fill: #fff;
    }
  }
</style>
<rect width="128" height="128" fill="none"/>
<path fill-rule="evenodd" clip-rule="evenodd" d="M122.458 66.7824C122.469 62.0567 121.018 57.4433 118.305 53.5741C115.592 49.705 111.749 46.7694 107.302 45.1695C107.707 43.107 107.911 41.0102 107.911 38.9083C107.915 31.9513 105.713 25.1721 101.621 19.5456C97.5295 13.9191 91.7589 9.73496 85.1392 7.59483C78.5195 5.45471 71.3916 5.46881 64.7804 7.63512C58.1693 9.80142 52.4153 14.0083 48.3458 19.651C45.3435 17.3245 41.6647 16.0397 37.8668 15.9914C34.0688 15.9431 30.3586 17.1339 27.2981 19.3834C24.2376 21.6329 21.9935 24.8185 20.9059 28.4577C19.8183 32.0969 19.9463 35.9914 21.2705 39.5514C16.8135 41.1759 12.9608 44.1265 10.2308 48.0061C7.50077 51.8857 6.02434 56.5084 6.00008 61.2522C5.98771 65.9942 7.44562 70.6234 10.1731 74.5024C12.9006 78.3815 16.7634 81.3197 21.2299 82.9125C20.8345 84.9739 20.6329 87.0678 20.6275 89.1669C20.6208 96.1159 22.8212 102.887 26.9114 108.505C31.0015 114.123 36.7701 118.297 43.3853 120.424C50.0005 122.552 57.1206 122.524 63.7188 120.344C70.3171 118.164 76.0526 113.945 80.0983 108.296C83.0918 110.628 86.7643 111.92 90.5588 111.977C94.3532 112.034 98.0627 110.851 101.124 108.609C104.186 106.367 106.433 103.188 107.525 99.5535C108.617 95.9191 108.493 92.0277 107.174 88.4697C111.633 86.8479 115.488 83.8982 118.22 80.0181C120.951 76.138 122.428 71.5139 122.451 66.7688L122.458 66.7824ZM51.7842 55.9668L77.2688 67.6024L102.99 45.0757C103.361 43.217 103.544 41.3258 103.539 39.4305C103.537 33.2946 101.572 27.3201 97.9308 22.3814C94.2896 17.4426 89.1633 13.7989 83.3021 11.9834C77.4409 10.1678 71.1525 10.2757 65.3571 12.2914C59.5616 14.307 54.5634 18.1245 51.0938 23.1853L46.8091 45.3465L51.7842 55.9668ZM24.8443 88.6871C24.8422 86.7622 25.0303 84.8418 25.4061 82.9539L50.4846 60.2919L76.0639 71.9478L81.7294 82.778L77.4854 104.892C74.0202 109.986 69.0132 113.836 63.1992 115.876C57.3852 117.916 51.0704 118.039 45.1816 116.226C39.2928 114.413 34.1402 110.761 30.4799 105.804C26.8196 100.848 24.8444 94.8486 24.8443 88.6871ZM25.2505 38.8548L42.7141 42.977L46.5385 23.1173C44.1632 21.3162 41.2684 20.3329 38.2875 20.3148C35.3066 20.2966 32.4 21.2445 30.003 23.0166C27.6059 24.7887 25.8474 27.2895 24.9906 30.1447C24.1339 32.9999 24.2251 36.0558 25.2505 38.8548ZM14.1977 50.0343C16.5694 46.7588 19.9029 44.3039 23.7345 43.0109L42.9241 47.5392L47.4254 57.151L22.9223 79.2986C19.2683 77.912 16.1229 75.4461 13.9043 72.2288C11.6856 69.0114 10.4987 65.1949 10.5015 61.2867C10.5341 57.2429 11.826 53.3097 14.1977 50.0343ZM81.9663 104.891C84.3378 106.683 87.2253 107.66 90.1976 107.676C93.1699 107.692 96.0676 106.746 98.458 104.979C100.848 103.212 102.603 100.72 103.46 97.8738C104.317 95.0277 104.231 91.9807 103.214 89.1878L85.7636 85.1265L81.9663 104.891ZM104.723 85.0181L85.5133 80.5304L80.4164 70.7765L105.542 48.7778C109.189 50.1602 112.329 52.6187 114.546 55.8271C116.764 59.0356 117.953 62.8423 117.956 66.7423C117.928 70.7871 116.637 74.7221 114.265 77.9984C111.893 81.2746 108.557 83.7287 104.723 85.0181Z" fill="#343741"/>
</svg>
